<svg width="2127" height="2127" viewBox="0 0 2127 2127" fill="none" xmlns="http://www.w3.org/2000/svg">
<rect x="63" y="64" width="2000" height="2000" rx="450" fill="url(#paint0_linear_2_97)"/>
<g filter="url(#filter0_f_2_97)">
<circle cx="1063.5" cy="1063.5" r="863.5" fill="url(#paint1_radial_2_97)" fill-opacity="0.7"/>
</g>
<path d="M1509.08 676.854V686.442H839.9C679.093 686.442 585.995 778.946 585.995 938.006V1383.6H561.169C443.244 1383.6 384 1325.5 384 1208.75V676.854C384 560.661 443.244 502 561.169 502H1331.91C1449.83 502 1509.08 560.661 1509.08 676.854Z" fill="white" fill-opacity="0.425"/>
<path fill-rule="evenodd" clip-rule="evenodd" d="M1786 1470.95V939.059C1786 822.866 1726.76 764.206 1608.83 764.206H838.091C720.166 764.206 660.922 822.866 660.922 939.059V1470.95C660.922 1587.71 720.166 1645.81 838.091 1645.81H1608.83C1726.76 1645.81 1786 1587.15 1786 1470.95ZM1390.47 1130.23L1508.4 1201.86L1390.47 1272.93C1350.98 1297.18 1384.83 1357.54 1427.71 1329.9L1570.47 1240.78C1598.68 1222.73 1596.99 1180.43 1570.47 1162.94L1427.71 1073.82C1384.83 1046.75 1350.41 1106.54 1390.47 1130.23ZM937.594 1202.06L1055.52 1273.69C1095.58 1297.38 1061.16 1357.17 1018.28 1330.1L875.53 1240.98C849.01 1223.49 847.317 1181.19 875.53 1163.14L1018.28 1074.03C1061.16 1046.38 1095.02 1106.74 1055.52 1130.99L937.594 1202.06ZM1147.11 1347.97C1136.26 1378.27 1143.11 1398 1160.02 1404.05C1178.01 1410.5 1199.5 1400.93 1210.36 1370.63L1323.29 1055.33C1334.48 1024.09 1321.82 1011.17 1303.83 1004.72C1286.93 998.667 1271.23 1001.43 1260.04 1032.68L1147.11 1347.97Z" fill="white" fill-opacity="0.85"/>
<defs>
<filter id="filter0_f_2_97" x="0" y="0" width="2127" height="2127" filterUnits="userSpaceOnUse" color-interpolation-filters="sRGB">
<feFlood flood-opacity="0" result="BackgroundImageFix"/>
<feBlend mode="normal" in="SourceGraphic" in2="BackgroundImageFix" result="shape"/>
<feGaussianBlur stdDeviation="100" result="effect1_foregroundBlur_2_97"/>
</filter>
<linearGradient id="paint0_linear_2_97" x1="-41.5" y1="-10.5" x2="2200" y2="2165" gradientUnits="userSpaceOnUse">
<stop stop-color="#0A0A0A"/>
<stop offset="1" stop-color="#161616"/>
</linearGradient>
<radialGradient id="paint1_radial_2_97" cx="0" cy="0" r="1" gradientUnits="userSpaceOnUse" gradientTransform="translate(1063.5 1063.5) rotate(134.792) scale(863.5)">
<stop stop-color="white" stop-opacity="0.5"/>
<stop offset="1" stop-color="white" stop-opacity="0"/>
</radialGradient>
</defs>
</svg>
